<?xml version="1.0" encoding="UTF-8" standalone="no" ?>
<!DOCTYPE svg PUBLIC "-//W3C//DTD SVG 1.1//EN" "http://www.w3.org/Graphics/SVG/1.1/DTD/svg11.dtd">
<svg xmlns="http://www.w3.org/2000/svg" xmlns:xlink="http://www.w3.org/1999/xlink" version="1.1" width="359.37770951271057" height="169.362" xml:space="preserve">
<desc>Created with Fabric.js 1.6.0-rc.1</desc>
<defs></defs>
<g style="stroke: none; stroke-width: 1; stroke-dasharray: none; stroke-linecap: butt; stroke-linejoin: miter; stroke-miterlimit: 10; fill: none; fill-rule: nonzero; opacity: 1;" transform="translate(17.309999999999945 55.44999999999999) rotate(309.79) scale(0.1 0.1)" >
  <path d="M 201.78 307.005 c 2.334 -13.051 0.12 -28.147 -6.606 -44.983 c -5.523 -13.823 -12.214 -23.873 -12.496 -24.294 l -5.129 -7.654 l -8.637 3.206 c -0.665 0.246 -12.592 4.734 -25.535 13.559 c -2.163 -7.521 -3.204 -15.332 -3.103 -23.355 c 0.333 -26.609 13.941 -51.442 35.904 -66.18 c 15.527 6.694 33.28 6.471 48.755 -0.864 l 28.867 -13.681 l -3.051 -9.702 c -0.118 -0.377 -2.969 -9.34 -8.875 -19.344 c -6.286 -10.645 -13.608 -18.599 -21.854 -23.757 c 1.177 -9.275 -0.222 -19.788 -4.192 -31.389 c -3.762 -10.995 -8.609 -19.137 -8.814 -19.48 l -4.938 -8.239 l -25.761 9.276 c -20.799 7.488 -35.352 25.498 -38.511 46.948 C 69.275 118.877 24.791 187.234 23.842 263.174 c -0.285 22.846 3.301 45.186 10.669 66.548 c -17.869 13.185 -29.127 31.186 -29.664 32.055 L 0 369.617 l 6.497 6.537 c 0.357 0.36 8.893 8.898 21.36 17.033 c 17.657 11.524 34.21 16.604 49.191 15.081 c 2.243 -0.227 4.515 -0.614 6.802 -1.162 c 9.19 8.894 19.199 16.869 29.837 23.766 c 12.465 8.084 26.394 12.24 40.42 12.416 c 12.552 0.155 25.183 -2.879 36.891 -9.148 c 24.721 -13.232 39.688 -37.881 40.039 -65.933 l 0.006 -0.52 C 231.341 343.79 220.542 321.682 201.78 307.005 z" style="stroke: none; stroke-width: 1; stroke-dasharray: none; stroke-linecap: butt; stroke-linejoin: miter; stroke-miterlimit: 10; fill: #545412; fill-rule: nonzero; opacity: 1;" transform=" matrix(1 0 0 1 0 0) " stroke-linecap="round" />
  <path d="M 225.606 395.805 c -35.575 -8.525 -66.797 -30.47 -86.85 -61.417 c -5.404 -8.338 -9.949 -17.257 -13.509 -26.504 l -32.7 12.588 c 4.43 11.508 10.083 22.6 16.804 32.97 c 22.281 34.385 55.647 59.837 94.055 72.452 C 213.354 417.81 220.927 407.5 225.606 395.805 z" style="stroke: none; stroke-width: 1; stroke-dasharray: none; stroke-linecap: butt; stroke-linejoin: miter; stroke-miterlimit: 10; fill: #1520e0; fill-rule: nonzero; opacity: 1;" transform=" matrix(1 0 0 1 0 0) " stroke-linecap="round" />
  <path d="M 310.22 204.997 c -2.334 13.051 -0.12 28.147 6.606 44.983 c 5.523 13.823 12.214 23.873 12.496 24.294 l 5.129 7.654 l 8.637 -3.206 c 0.665 -0.246 12.592 -4.734 25.537 -13.559 c 2.163 7.521 3.204 15.332 3.103 23.355 c -0.332 26.609 -13.941 51.442 -35.904 66.18 c -15.527 -6.694 -33.28 -6.471 -48.755 0.864 l -28.867 13.681 l 3.051 9.702 c 0.118 0.377 2.969 9.34 8.875 19.344 c 6.286 10.645 13.608 18.599 21.854 23.757 c -1.177 9.275 0.222 19.788 4.192 31.389 c 3.762 10.995 8.609 19.137 8.814 19.478 l 4.938 8.239 l 25.76 -9.276 c 20.799 -7.488 35.352 -25.498 38.511 -46.948 c 68.527 -31.804 113.011 -100.161 113.961 -176.1 c 0.285 -22.846 -3.301 -45.186 -10.669 -66.548 c 17.87 -13.188 29.128 -31.188 29.665 -32.059 l 4.847 -7.838 l -6.497 -6.537 c -0.357 -0.36 -8.893 -8.898 -21.36 -17.033 c -17.657 -11.524 -34.21 -16.604 -49.19 -15.081 c -2.243 0.227 -4.515 0.614 -6.802 1.162 c -9.19 -8.893 -19.2 -16.869 -29.837 -23.766 c -12.465 -8.084 -26.394 -12.24 -40.42 -12.416 c -12.552 -0.155 -25.183 2.879 -36.891 9.148 c -24.721 13.232 -39.689 37.881 -40.039 65.933 l -0.007 0.52 C 280.659 168.212 291.458 190.319 310.22 204.997 z" style="stroke: none; stroke-width: 1; stroke-dasharray: none; stroke-linecap: butt; stroke-linejoin: miter; stroke-miterlimit: 10; fill: #1520e0; fill-rule: nonzero; opacity: 1;" transform=" matrix(1 0 0 1 0 0) " stroke-linecap="round" />
  <path d="M 286.393 116.197 c 35.575 8.525 66.797 30.47 86.85 61.417 c 5.404 8.338 9.949 17.256 13.509 26.504 l 32.7 -12.588 c -4.43 -11.508 -10.084 -22.6 -16.804 -32.97 C 380.366 124.175 347 98.723 308.592 86.108 C 298.646 94.193 291.073 104.502 286.393 116.197 z" style="stroke: none; stroke-width: 1; stroke-dasharray: none; stroke-linecap: butt; stroke-linejoin: miter; stroke-miterlimit: 10; fill: #545412; fill-rule: nonzero; opacity: 1;" transform=" matrix(1 0 0 1 0 0) " stroke-linecap="round" />
</g>
  <g transform="translate(139.72 40.38) rotate(1.33) scale(1.01 0.7)">
   <text font-family="Amerika Sans" font-size="40" font-weight="normal" style="stroke: none; stroke-width: 1; stroke-dasharray: none; stroke-linecap: butt; stroke-linejoin: miter; stroke-miterlimit: 10; fill: #133809; fill-rule: nonzero; opacity: 1;" ><tspan x="-32.75" y="8.98" style="stroke: none; stroke-width: 0; stroke-dasharray: none; stroke-linecap: butt; stroke-linejoin: miter; stroke-miterlimit: 4; fill: #133809; fill-rule: ; opacity: 1;">G</tspan><tspan x="-4.88" y="8.98" style="stroke: none; stroke-width: 0; stroke-dasharray: none; stroke-linecap: butt; stroke-linejoin: miter; stroke-miterlimit: 4; fill: #133809; fill-rule: ; opacity: 1;">i</tspan><tspan x="4.48" y="8.98" style="stroke: none; stroke-width: 0; stroke-dasharray: none; stroke-linecap: butt; stroke-linejoin: miter; stroke-miterlimit: 4; fill: #133809; fill-rule: ; opacity: 1;">t</tspan><tspan x="18.75" y="8.98" style="stroke: none; stroke-width: 0; stroke-dasharray: none; stroke-linecap: butt; stroke-linejoin: miter; stroke-miterlimit: 4; fill: #133809; fill-rule: ; opacity: 1;"> </tspan></text>
 </g>
  <g transform="translate(204.06 41.18) rotate(1.33) scale(1.41 1.13)">
   <text font-family="Bombardier" font-size="40" font-weight="bold" style="stroke: none; stroke-width: 1; stroke-dasharray: none; stroke-linecap: butt; stroke-linejoin: miter; stroke-miterlimit: 10; fill: #3630f0; fill-rule: nonzero; opacity: 1;" ><tspan x="-30.15" y="8.98" style="stroke: none; stroke-width: 0; stroke-dasharray: none; stroke-linecap: butt; stroke-linejoin: miter; stroke-miterlimit: 4; fill: #3630f0; fill-rule: ; opacity: 1;">C</tspan><tspan x="-10.9" y="8.98" style="stroke: none; stroke-width: 0; stroke-dasharray: none; stroke-linecap: butt; stroke-linejoin: miter; stroke-miterlimit: 4; fill: #3630f0; fill-rule: ; opacity: 1;">o</tspan><tspan x="9.83" y="8.98" style="stroke: none; stroke-width: 0; stroke-dasharray: none; stroke-linecap: butt; stroke-linejoin: miter; stroke-miterlimit: 4; fill: #3630f0; fill-rule: ; opacity: 1;">n</tspan></text>
 </g>
<g style="stroke: none; stroke-width: 1; stroke-dasharray: none; stroke-linecap: butt; stroke-linejoin: miter; stroke-miterlimit: 10; fill: none; fill-rule: nonzero; opacity: 1;" transform="translate(10 17.939999999999998) scale(0.17 0.13)" >
  <path d="M 516.727 266.696 c -0.665 -34.825 -8.221 -69.54 -22.175 -101.283 c -13.908 -31.771 -34.094 -60.551 -58.876 -84.333 c -24.767 -23.8 -54.139 -42.615 -85.929 -55.027 c -31.773 -12.46 -65.937 -18.412 -99.687 -17.69 c -33.755 0.668 -67.36 8.007 -98.091 21.539 c -30.754 13.488 -58.615 33.058 -81.632 57.071 c -23.033 24.001 -41.229 52.452 -53.222 83.229 C 5.077 200.962 -0.66 234.013 0.06 266.696 c 0.67 32.688 7.793 65.182 20.903 94.899 c 13.067 29.738 32.019 56.681 55.266 78.931 c 23.234 22.268 50.766 39.846 80.528 51.417 c 29.749 11.616 61.69 17.136 93.303 16.419 c 31.62 -0.671 63.001 -7.58 91.707 -20.268 c 28.724 -12.646 54.747 -30.979 76.231 -53.461 c 21.503 -22.469 38.461 -49.08 49.611 -77.827 c 6.79 -17.427 11.396 -35.624 13.824 -54.062 c 0.649 0.037 1.302 0.063 1.96 0.063 c 18.409 0 33.333 -14.923 33.333 -33.333 c 0 -0.936 -0.049 -1.861 -0.124 -2.777 L 516.727 266.696 L 516.727 266.696 z M 463.762 355.21 c -12.226 27.71 -29.94 52.812 -51.655 73.532 c -21.703 20.732 -47.396 37.076 -75.127 47.807 c -27.724 10.77 -57.443 15.859 -86.919 15.146 c -29.481 -0.677 -58.644 -7.154 -85.323 -18.997 c -26.692 -11.806 -50.877 -28.901 -70.83 -49.849 c -19.968 -20.938 -35.691 -45.711 -46.001 -72.427 c -10.349 -26.712 -15.223 -55.321 -14.512 -83.728 c 0.678 -28.413 6.941 -56.465 18.361 -82.131 c 11.384 -25.677 27.863 -48.943 48.045 -68.13 c 20.172 -19.202 44.026 -34.307 69.726 -44.195 c 25.697 -9.928 53.195 -14.587 80.534 -13.877 c 27.343 0.68 54.286 6.728 78.939 17.726 c 24.662 10.963 47.008 26.824 65.429 46.241 c 18.436 19.405 32.922 42.341 42.391 67.025 c 9.504 24.684 13.948 51.072 13.241 77.342 h 0.125 c -0.076 0.916 -0.125 1.841 -0.125 2.777 c 0 17.193 13.018 31.34 29.732 33.137 C 476.551 320.747 471.184 338.453 463.762 355.21 z" style="stroke: none; stroke-width: 1; stroke-dasharray: none; stroke-linecap: butt; stroke-linejoin: miter; stroke-miterlimit: 10; fill: #e06716; fill-rule: nonzero; opacity: 1;" transform="" stroke-linecap="round" />
</g>
  <g transform="translate(170.58 133.65)">
   <text font-family="ADAMCG PRO" font-size="40" font-weight="normal" style="stroke: none; stroke-width: 1; stroke-dasharray: none; stroke-linecap: butt; stroke-linejoin: miter; stroke-miterlimit: 10; fill: #000000; fill-rule: nonzero; opacity: 1;" ><tspan x="0" y="8.98" fill="#000000"></tspan></text>
 </g>
  <g transform="translate(229.77 70.81) scale(0.53 0.57)">
   <text font-family="Amerika Sans" font-size="40" font-weight="bold" style="stroke: none; stroke-width: 1; stroke-dasharray: none; stroke-linecap: butt; stroke-linejoin: miter; stroke-miterlimit: 10; fill: #7a4c14; fill-rule: nonzero; opacity: 1;" ><tspan x="-226.18" y="8.98" style="stroke: none; stroke-width: 0; stroke-dasharray: none; stroke-linecap: butt; stroke-linejoin: miter; stroke-miterlimit: 4; fill: #7a4c14; fill-rule: ; opacity: 1;">C</tspan><tspan x="-196.26" y="8.98" style="stroke: none; stroke-width: 0; stroke-dasharray: none; stroke-linecap: butt; stroke-linejoin: miter; stroke-miterlimit: 4; fill: #7a4c14; fill-rule: ; opacity: 1;">o</tspan><tspan x="-171.66" y="8.98" style="stroke: none; stroke-width: 0; stroke-dasharray: none; stroke-linecap: butt; stroke-linejoin: miter; stroke-miterlimit: 4; fill: #7a4c14; fill-rule: ; opacity: 1;">n</tspan><tspan x="-147.57" y="8.98" style="stroke: none; stroke-width: 0; stroke-dasharray: none; stroke-linecap: butt; stroke-linejoin: miter; stroke-miterlimit: 4; fill: #7a4c14; fill-rule: ; opacity: 1;">n</tspan><tspan x="-123.49" y="8.98" style="stroke: none; stroke-width: 0; stroke-dasharray: none; stroke-linecap: butt; stroke-linejoin: miter; stroke-miterlimit: 4; fill: #7a4c14; fill-rule: ; opacity: 1;">e</tspan><tspan x="-99.97" y="8.98" style="stroke: none; stroke-width: 0; stroke-dasharray: none; stroke-linecap: butt; stroke-linejoin: miter; stroke-miterlimit: 4; fill: #7a4c14; fill-rule: ; opacity: 1;">c</tspan><tspan x="-77.57" y="8.98" style="stroke: none; stroke-width: 0; stroke-dasharray: none; stroke-linecap: butt; stroke-linejoin: miter; stroke-miterlimit: 4; fill: #7a4c14; fill-rule: ; opacity: 1;">t</tspan><tspan x="-62.49" y="8.98" style="stroke: none; stroke-width: 0; stroke-dasharray: none; stroke-linecap: butt; stroke-linejoin: miter; stroke-miterlimit: 4; fill: #7a4c14; fill-rule: ; opacity: 1;">i</tspan><tspan x="-52.32" y="8.98" style="stroke: none; stroke-width: 0; stroke-dasharray: none; stroke-linecap: butt; stroke-linejoin: miter; stroke-miterlimit: 4; fill: #7a4c14; fill-rule: ; opacity: 1;">n</tspan><tspan x="-28.24" y="8.98" style="stroke: none; stroke-width: 0; stroke-dasharray: none; stroke-linecap: butt; stroke-linejoin: miter; stroke-miterlimit: 4; fill: #7a4c14; fill-rule: ; opacity: 1;">g</tspan><tspan x="-1.32" y="8.98" style="stroke: none; stroke-width: 0; stroke-dasharray: none; stroke-linecap: butt; stroke-linejoin: miter; stroke-miterlimit: 4; fill: #7a4c14; fill-rule: ; opacity: 1;"> </tspan><tspan x="12.68" y="8.98" style="stroke: none; stroke-width: 0; stroke-dasharray: none; stroke-linecap: butt; stroke-linejoin: miter; stroke-miterlimit: 4; fill: #7a4c14; fill-rule: ; opacity: 1;">d</tspan><tspan x="37.32" y="8.98" style="stroke: none; stroke-width: 0; stroke-dasharray: none; stroke-linecap: butt; stroke-linejoin: miter; stroke-miterlimit: 4; fill: #7a4c14; fill-rule: ; opacity: 1;">e</tspan><tspan x="60.84" y="8.98" style="stroke: none; stroke-width: 0; stroke-dasharray: none; stroke-linecap: butt; stroke-linejoin: miter; stroke-miterlimit: 4; fill: #7a4c14; fill-rule: ; opacity: 1;">v</tspan><tspan x="81.64" y="8.98" style="stroke: none; stroke-width: 0; stroke-dasharray: none; stroke-linecap: butt; stroke-linejoin: miter; stroke-miterlimit: 4; fill: #7a4c14; fill-rule: ; opacity: 1;">e</tspan><tspan x="105.16" y="8.98" style="stroke: none; stroke-width: 0; stroke-dasharray: none; stroke-linecap: butt; stroke-linejoin: miter; stroke-miterlimit: 4; fill: #7a4c14; fill-rule: ; opacity: 1;">l</tspan><tspan x="119.24" y="8.98" style="stroke: none; stroke-width: 0; stroke-dasharray: none; stroke-linecap: butt; stroke-linejoin: miter; stroke-miterlimit: 4; fill: #7a4c14; fill-rule: ; opacity: 1;">o</tspan><tspan x="143.84" y="8.98" style="stroke: none; stroke-width: 0; stroke-dasharray: none; stroke-linecap: butt; stroke-linejoin: miter; stroke-miterlimit: 4; fill: #7a4c14; fill-rule: ; opacity: 1;">p</tspan><tspan x="168.41" y="8.98" style="stroke: none; stroke-width: 0; stroke-dasharray: none; stroke-linecap: butt; stroke-linejoin: miter; stroke-miterlimit: 4; fill: #7a4c14; fill-rule: ; opacity: 1;">e</tspan><tspan x="191.93" y="8.98" style="stroke: none; stroke-width: 0; stroke-dasharray: none; stroke-linecap: butt; stroke-linejoin: miter; stroke-miterlimit: 4; fill: #7a4c14; fill-rule: ; opacity: 1;">r</tspan><tspan x="208.49" y="8.98" style="stroke: none; stroke-width: 0; stroke-dasharray: none; stroke-linecap: butt; stroke-linejoin: miter; stroke-miterlimit: 4; fill: #7a4c14; fill-rule: ; opacity: 1;">s</tspan></text>
 </g>
<g style="stroke: none; stroke-width: 1; stroke-dasharray: none; stroke-linecap: butt; stroke-linejoin: miter; stroke-miterlimit: 10; fill: none; fill-rule: nonzero; opacity: 1;" transform="translate(248.62999999999997 20.379999999999995) scale(0.88 0.67)" >
  <circle cx="11" cy="28.46" r="9" style="stroke: none; stroke-width: 1; stroke-dasharray: none; stroke-linecap: butt; stroke-linejoin: miter; stroke-miterlimit: 10; fill: #1c9967; fill-rule: nonzero; opacity: 1;" transform="  matrix(1 0 0 1 0 0) "/>
  <circle cx="46" cy="48" r="9" style="stroke: none; stroke-width: 1; stroke-dasharray: none; stroke-linecap: butt; stroke-linejoin: miter; stroke-miterlimit: 10; fill: #1c9967; fill-rule: nonzero; opacity: 1;" transform="  matrix(1 0 0 1 0 0) "/>
  <circle cx="46" cy="9" r="9" style="stroke: none; stroke-width: 1; stroke-dasharray: none; stroke-linecap: butt; stroke-linejoin: miter; stroke-miterlimit: 10; fill: #1c9967; fill-rule: nonzero; opacity: 1;" transform="  matrix(1 0 0 1 0 0) "/>
  <path d="M 19.017 25.36 c 0.176 0 0.354 -0.046 0.515 -0.144 l 18.908 -11.388 c 0.473 -0.285 0.625 -0.899 0.34 -1.372 c -0.285 -0.474 -0.899 -0.627 -1.373 -0.341 L 18.5 23.504 c -0.473 0.285 -0.625 0.899 -0.34 1.372 C 18.347 25.188 18.677 25.36 19.017 25.36 z" style="stroke: none; stroke-width: 1; stroke-dasharray: none; stroke-linecap: butt; stroke-linejoin: miter; stroke-miterlimit: 10; fill: #424A60; fill-rule: nonzero; opacity: 1;" transform=" matrix(1 0 0 1 0 0) " stroke-linecap="round" />
  <path d="M 38.442 43.171 L 19.535 31.694 c -0.472 -0.287 -1.087 -0.138 -1.374 0.336 c -0.287 0.472 -0.136 1.087 0.336 1.373 L 37.404 44.88 c 0.162 0.099 0.341 0.146 0.518 0.146 c 0.338 0 0.667 -0.171 0.856 -0.481 C 39.065 44.072 38.915 43.457 38.442 43.171 z" style="stroke: none; stroke-width: 1; stroke-dasharray: none; stroke-linecap: butt; stroke-linejoin: miter; stroke-miterlimit: 10; fill: #424A60; fill-rule: nonzero; opacity: 1;" transform=" matrix(1 0 0 1 0 0) " stroke-linecap="round" />
</g>
</svg>